<svg width="53" height="53" viewBox="0 0 53 53" fill="none" xmlns="http://www.w3.org/2000/svg">
<path fill-rule="evenodd" clip-rule="evenodd" d="M26.5 52.5C40.8594 52.5 52.5 40.8594 52.5 26.5C52.5 12.1406 40.8594 0.5 26.5 0.5C12.1406 0.5 0.5 12.1406 0.5 26.5C0.5 40.8594 12.1406 52.5 26.5 52.5ZM22.9545 36.4432C24.2803 37.0265 25.7917 37.3182 27.4886 37.3182C29.2311 37.3182 30.7765 37.0227 32.125 36.4318C33.4735 35.8409 34.5303 35.0303 35.2955 34C36.0682 32.9697 36.4508 31.7917 36.4432 30.4659C36.4508 29.0189 36.0038 27.8144 35.1023 26.8523C34.2083 25.8826 32.9053 25.2879 31.1932 25.0682V24.8864C32.4962 24.6515 33.553 24.0985 34.3636 23.2273C35.1818 22.3561 35.5871 21.2689 35.5795 19.9659C35.5871 18.7386 35.2538 17.6326 34.5795 16.6477C33.9129 15.6553 32.9773 14.8674 31.7727 14.2841C30.5682 13.7008 29.1629 13.4091 27.5568 13.4091C25.9659 13.4091 24.5379 13.7008 23.2727 14.2841C22.0152 14.8598 21.0152 15.6591 20.2727 16.6818C19.5303 17.7045 19.1477 18.8864 19.125 20.2273H23.8409C23.8636 19.6364 24.0417 19.1212 24.375 18.6818C24.7083 18.2424 25.1515 17.9053 25.7045 17.6705C26.2576 17.428 26.8674 17.3068 27.5341 17.3068C28.1932 17.3068 28.7689 17.4318 29.2614 17.6818C29.7614 17.9318 30.1477 18.2803 30.4205 18.7273C30.7008 19.1667 30.8409 19.678 30.8409 20.2614C30.8409 20.875 30.6818 21.4129 30.3636 21.875C30.0455 22.3295 29.5985 22.6856 29.0227 22.9432C28.4545 23.2008 27.7992 23.3295 27.0568 23.3295H24.8864V26.9432H27.0568C27.9356 26.9432 28.6932 27.0795 29.3295 27.3523C29.9735 27.625 30.4659 28.0038 30.8068 28.4886C31.1553 28.9659 31.3295 29.5152 31.3295 30.1364C31.3295 30.75 31.1667 31.2917 30.8409 31.7614C30.5152 32.2311 30.0644 32.5985 29.4886 32.8636C28.9129 33.1288 28.25 33.2614 27.5 33.2614C26.7803 33.2614 26.1326 33.1439 25.5568 32.9091C24.9811 32.6742 24.5189 32.3447 24.1705 31.9205C23.8295 31.4886 23.6439 30.9886 23.6136 30.4205H18.6591C18.6818 31.7765 19.072 32.9735 19.8295 34.0114C20.5947 35.0417 21.6364 35.8523 22.9545 36.4432Z" fill="#00A9FF"/>
</svg>
